<svg width="491" height="428" viewBox="0 0 491 428" fill="none" xmlns="http://www.w3.org/2000/svg">
<g clip-path="url(#clip0_33_315)">
<path d="M457.562 427.513V381.146C457.562 381.146 475.643 414.018 457.562 427.513Z" fill="#F1F1F1"/>
<path d="M458.68 427.505L424.503 396.148C424.503 396.148 460.96 405.068 458.68 427.505Z" fill="#F1F1F1"/>
<path d="M173.298 82.5441H171.388V30.2604C171.388 22.2348 168.198 14.538 162.52 8.86306C156.842 3.18814 149.141 5.09991e-06 141.11 0H30.2776C26.3015 -9.25891e-06 22.3643 0.782688 18.6909 2.30341C15.0174 3.82412 11.6797 6.05308 8.86812 8.86301C6.05659 11.6729 3.82635 15.0088 2.30476 18.6802C0.783166 22.3515 6.73763e-06 26.2864 0 30.2603V317.093C-6.80362e-06 325.118 3.18993 332.815 8.86806 338.49C14.5462 344.165 22.2474 347.353 30.2775 347.353H141.11C149.14 347.353 156.842 344.165 162.52 338.49C168.198 332.815 171.388 325.118 171.388 317.093V119.76H173.298V82.5441Z" fill="#3F3D56"/>
<path d="M142.332 7.87282H127.865C128.53 9.50304 128.784 11.2718 128.604 13.0232C128.424 14.7746 127.816 16.455 126.834 17.9162C125.851 19.3775 124.524 20.5748 122.969 21.4028C121.415 22.2307 119.68 22.6638 117.919 22.6639H54.424C52.6624 22.6638 50.9278 22.2307 49.3731 21.4028C47.8185 20.5748 46.4914 19.3775 45.5088 17.9162C44.5262 16.4549 43.9182 14.7746 43.7385 13.0232C43.5587 11.2717 43.8127 9.50302 44.478 7.8728H30.9654C27.9961 7.8728 25.0559 8.45731 22.3126 9.59297C19.5693 10.7286 17.0767 12.3932 14.9771 14.4916C12.8775 16.59 11.212 19.0812 10.0757 21.823C8.93934 24.5647 8.3545 27.5033 8.35449 30.4709V316.882C8.35449 319.85 8.93933 322.789 10.0756 325.53C11.2119 328.272 12.8774 330.763 14.9771 332.862C17.0767 334.96 19.5693 336.625 22.3126 337.76C25.0559 338.896 27.9961 339.481 30.9654 339.481H142.332C148.329 339.481 154.08 337.1 158.32 332.862C162.561 328.624 164.943 322.876 164.943 316.882V30.4709C164.943 27.5033 164.358 24.5647 163.222 21.823C162.085 19.0813 160.42 16.5901 158.32 14.4916C156.221 12.3932 153.728 10.7286 150.985 9.59299C148.242 8.45733 145.301 7.87282 142.332 7.87282Z" fill="white"/>
<path d="M86.6489 221.568C116.559 221.568 140.807 197.335 140.807 167.441C140.807 137.548 116.559 113.314 86.6489 113.314C56.7384 113.314 32.4912 137.548 32.4912 167.441C32.4912 197.335 56.7384 221.568 86.6489 221.568Z" fill="#0E8450"/>
<path d="M102.697 171.14L89.229 185.004C88.936 185.299 88.5858 185.532 88.1998 185.687C87.8139 185.842 87.4003 185.918 86.9844 185.908H86.9396C86.5227 185.917 86.1083 185.842 85.7214 185.686C85.3345 185.531 84.9831 185.299 84.6884 185.004L71.2271 171.14C71.1823 171.089 71.1309 171.044 71.0859 170.999C70.5486 170.423 70.2618 169.658 70.2883 168.871C70.3148 168.084 70.6524 167.339 71.2271 166.801C71.8418 166.223 72.6537 165.902 73.4974 165.902C74.3411 165.902 75.153 166.223 75.7677 166.801L83.7458 175.133V153.648C83.783 152.821 84.138 152.039 84.7371 151.467C85.3362 150.894 86.1331 150.575 86.962 150.575C87.7909 150.575 88.5878 150.894 89.1869 151.467C89.786 152.039 90.141 152.821 90.1782 153.648V175.133L98.15 166.801C98.766 166.223 99.5789 165.902 100.423 165.902C101.268 165.902 102.081 166.223 102.697 166.801C102.742 166.846 102.787 166.89 102.838 166.942C103.374 167.518 103.66 168.283 103.633 169.07C103.607 169.856 103.27 170.601 102.697 171.14Z" fill="white"/>
<path d="M378.549 418.73L370.686 418.729L366.946 388.419L378.55 388.42L378.549 418.73Z" fill="#9F616A"/>
<path d="M380.554 426.347L355.202 426.346V426.025C355.202 423.41 356.242 420.901 358.092 419.052C359.943 417.203 362.452 416.163 365.069 416.163L380.554 416.164L380.554 426.347Z" fill="#2F2E41"/>
<path d="M318.817 418.471L311.221 416.441L315.441 386.194L326.652 389.19L318.817 418.471Z" fill="#9F616A"/>
<path d="M318.786 426.347L294.294 419.801L294.377 419.492C295.053 416.965 296.706 414.81 298.971 413.501C301.237 412.192 303.93 411.836 306.458 412.512L321.418 416.51L318.786 426.347Z" fill="#2F2E41"/>
<path d="M383.072 248.866L389.658 256.513L381.14 411.91H362.947L353.774 292.338L325.334 415.117L306.42 410.481L323.618 254.535L383.072 248.866Z" fill="#2F2E41"/>
<path d="M328.015 148.54L346.129 139.459L373.987 139.948L397.959 152.208L384.32 220.287L390.212 255.784C367.44 261.588 343.598 261.784 320.734 256.355L320.551 256.312C320.551 256.312 334.092 208.293 328.328 193.639L328.015 148.54Z" fill="#CBCBCB"/>
<path d="M380.421 112.256C380.401 106.822 378.224 101.619 374.369 97.7871C370.514 93.9556 365.296 91.8093 359.859 91.8194C354.422 91.8294 349.212 93.995 345.371 97.8407C341.53 101.686 339.373 106.898 339.373 112.332C339.373 117.765 341.53 122.977 345.371 126.823C349.212 130.668 354.422 132.834 359.859 132.844C365.296 132.854 370.514 130.708 374.369 126.876C378.224 123.045 380.401 117.841 380.421 112.408C380.421 112.357 380.421 112.306 380.421 112.256Z" fill="#9F616A"/>
<path d="M350.706 100.535C351.769 99.5351 353.17 98.9706 354.629 98.9536C356.822 98.8824 360.108 99.6606 361.506 101.442C362.63 102.874 362.683 104.844 362.688 106.664L362.7 111.686C362.703 113.172 362.721 114.721 363.397 116.045C364.072 117.369 365.623 118.374 367.039 117.923C368.719 117.388 369.458 115.156 371.176 114.754C372.465 114.453 373.79 115.395 374.354 116.593C374.83 117.834 374.988 119.175 374.813 120.494C374.65 123.123 370.876 124.167 370.342 126.747C370.033 128.239 368.951 131.217 370.342 130.593C376.755 129.952 379.57 126.208 382.506 122.684L389.126 114.735C389.882 113.946 390.463 113.006 390.831 111.977C390.995 111.257 391.054 110.516 391.006 109.778C390.97 107.803 390.916 105.828 390.845 103.853C390.783 102.128 390.348 99.9513 388.658 99.5967C387.778 99.4123 386.615 99.7339 386.15 98.9655C385.976 98.5803 385.948 98.145 386.07 97.7406C386.444 95.7687 387.073 93.7063 386.424 91.8074C385.445 88.9435 382.073 87.7684 379.093 87.228C376.113 86.6877 372.769 86.2229 370.898 83.8425C370.398 83.0521 369.855 82.2893 369.272 81.5575C368.414 80.7779 367.36 80.2465 366.222 80.0204C362.524 79.0849 358.616 79.4314 355.14 81.0034C353.699 81.6607 352.251 82.5459 350.67 82.4458C349.028 82.3417 347.625 81.1866 346.003 80.9055C343.384 80.4516 340.881 82.4126 339.59 84.735C337.991 87.6127 337.844 91.5535 340.103 93.9488C341.23 95.1438 342.912 95.9646 343.38 97.5388C343.571 98.1796 343.526 98.8697 343.695 99.5166C343.891 100.161 344.266 100.736 344.775 101.176C345.284 101.617 345.908 101.904 346.574 102.006C348.175 102.267 349.53 101.533 350.706 100.535Z" fill="#2F2E41"/>
<path d="M325.514 198.176C325.904 199.177 326.509 200.08 327.286 200.822C328.062 201.565 328.993 202.127 330.011 202.471C331.029 202.815 332.11 202.932 333.178 202.813C334.246 202.694 335.275 202.342 336.192 201.783L372.975 221.216L374.166 212.261L338.425 191.197C337.383 189.719 335.834 188.674 334.072 188.261C332.311 187.848 330.459 188.095 328.868 188.955C327.276 189.816 326.056 191.229 325.438 192.929C324.82 194.628 324.847 196.495 325.514 198.176Z" fill="#9F616A"/>
<path d="M374.53 199.725C373.931 200.616 373.143 201.365 372.222 201.919C371.302 202.474 370.271 202.819 369.202 202.932C368.134 203.045 367.053 202.923 366.037 202.573C365.021 202.223 364.094 201.655 363.321 200.909L323.176 211.828L323.525 200.458L363.46 190.091C364.801 188.877 366.541 188.196 368.35 188.178C370.159 188.16 371.912 188.806 373.277 189.994C374.641 191.181 375.522 192.828 375.753 194.621C375.985 196.415 375.549 198.231 374.53 199.725Z" fill="#9F616A"/>
<path d="M390.132 152.698L397.959 152.208C397.959 152.208 407.123 164.294 402.04 177.408C402.04 177.408 402.921 224.518 382.623 222.583C362.325 220.648 355.912 220.648 355.912 220.648L362.005 203.663L375.635 199.457C375.635 199.457 371.434 180.937 379.386 173.231L390.132 152.698Z" fill="#CBCBCB"/>
<path d="M333.61 152.285L332.504 146.617C332.504 146.617 316.189 146.234 312.963 170.942C312.963 170.942 298.291 207.921 312.672 212.682C327.053 217.443 342.871 212.682 342.871 212.682L341.68 196.375L325.856 193.147C325.856 193.147 334.03 182.578 329.579 173.411L333.61 152.285Z" fill="#CBCBCB"/>
<path d="M490.359 428H246.013C245.843 428 245.68 427.932 245.559 427.812C245.439 427.692 245.372 427.529 245.372 427.359C245.372 427.189 245.439 427.026 245.559 426.906C245.68 426.786 245.843 426.718 246.013 426.718H490.359C490.529 426.718 490.692 426.786 490.812 426.906C490.932 427.026 491 427.189 491 427.359C491 427.529 490.932 427.692 490.812 427.812C490.692 427.932 490.529 428 490.359 428Z" fill="#CBCBCB"/>
</g>
<defs>
<clipPath id="clip0_33_315">
<rect width="491" height="428" fill="white"/>
</clipPath>
</defs>
</svg>
