<svg width="22" height="21" viewBox="0 0 22 21" fill="none" xmlns="http://www.w3.org/2000/svg">
<path d="M11.2057 0C5.45663 0 0.779846 4.67679 0.779846 10.4258C0.779846 16.1748 5.45663 20.8516 11.2057 20.8516C16.9547 20.8516 21.6315 16.1748 21.6315 10.4258C21.6315 4.67679 16.9547 0 11.2057 0ZM16.164 15.8185C15.9946 15.9879 15.7722 16.0732 15.5498 16.0732C15.3274 16.0732 15.1048 15.9879 14.9356 15.8185L10.5914 11.4745C10.428 11.3121 10.3369 11.0913 10.3369 10.8603V5.2129C10.3369 4.73247 10.726 4.34414 11.2057 4.34414C11.6853 4.34414 12.0744 4.73247 12.0744 5.2129V10.5006L16.164 14.59C16.5037 14.9298 16.5037 15.4788 16.164 15.8185Z" fill="#0C0B0B"/>
</svg>
