<svg width="55" height="62" viewBox="0 0 55 62" fill="none" xmlns="http://www.w3.org/2000/svg">
<path d="M26.1794 50.8245C26.5146 51.1597 26.9657 51.3401 27.404 51.3401C27.8422 51.3401 28.2934 51.1726 28.6285 50.8245L39.9329 39.5202C40.616 38.837 40.616 37.7414 39.9329 37.0582C39.2497 36.3751 38.1541 36.3751 37.4709 37.0582L29.1312 45.3979V1.74012C29.1312 0.773389 28.3578 0 27.3911 0C26.4243 0 25.6509 0.773389 25.6509 1.74012V45.385L17.3112 37.0453C16.6281 36.3622 15.5324 36.3622 14.8493 37.0453C14.1661 37.7285 14.1661 38.8241 14.8493 39.5073L26.1794 50.8245Z" fill="white"/>
<path d="M53.0674 45.7202C52.1006 45.7202 51.3272 46.4936 51.3272 47.4603V58.5198H3.48025V47.4603C3.48025 46.4936 2.70686 45.7202 1.74012 45.7202C0.773389 45.7202 0 46.4936 0 47.4603V60.2599C0 61.2267 0.773389 62 1.74012 62H53.0803C54.047 62 54.8204 61.2267 54.8204 60.2599V47.4603C54.8075 46.4936 54.0341 45.7202 53.0674 45.7202Z" fill="white"/>
</svg>
