<svg width="584" height="570" viewBox="0 0 584 570" fill="none" xmlns="http://www.w3.org/2000/svg">
<g clip-path="url(#clip0_42_1054)">
<path d="M180.341 418.138H107.188C105.344 418.138 103.844 416.638 103.844 414.795C103.844 412.951 105.344 411.452 107.188 411.452H180.341C182.186 411.452 183.685 412.951 183.685 414.795C183.685 416.638 182.186 418.138 180.341 418.138Z" fill="#0C9B5C"/>
<path d="M49.6936 436.035C49.6936 436.636 50.1761 437.118 50.777 437.118H236.752C237.353 437.118 237.835 436.636 237.835 436.035C237.835 435.434 237.353 434.952 236.752 434.952H50.777C50.1761 434.952 49.6936 435.434 49.6936 436.035Z" fill="#3F3D56"/>
<path d="M442.072 217.851C474.752 217.851 501.244 191.369 501.244 158.703C501.244 126.036 474.752 99.5542 442.072 99.5542C409.391 99.5542 382.899 126.036 382.899 158.703C382.899 191.369 409.391 217.851 442.072 217.851Z" fill="#FF6884"/>
<path d="M0 510.776C0 511.377 0.482512 511.859 1.08337 511.859H476.549C477.15 511.859 477.632 511.377 477.632 510.776C477.632 510.176 477.15 509.693 476.549 509.693H1.08337C0.482512 509.693 0 510.176 0 510.776Z" fill="#3F3D56"/>
<path d="M6.87765 437.649L5.35669 435.983L153.802 300.583L207.283 324.548L265.036 225.548L312.485 202.686L356.449 275.928C380.184 214.506 439.709 150.244 511.035 85.0459L512.79 86.466C445.892 150.487 388.656 214.798 356.173 279.854L315.509 211.909C313.588 208.699 309.551 207.459 306.158 209.037C280.222 221.1 258.588 240.791 244.15 265.477L207.973 327.328L199.715 323.628C172.097 311.253 139.765 316.44 117.408 336.832L6.87765 437.649Z" fill="#3F3D56"/>
<path d="M514.381 97.3729L512.128 97.5293L508.491 89.6512L500.349 87.998L500.033 85.762L513.454 83.8555L514.381 97.3729Z" fill="#3F3D56"/>
<path d="M282.831 145.578L290.81 114.914L321.896 113.419L331.197 155.688L282.831 145.578Z" fill="#FFB6B6"/>
<path opacity="0.1" d="M282.831 145.578L290.81 114.914L321.896 113.419L331.197 155.688L282.831 145.578Z" fill="black"/>
<path d="M303.286 132.074C324.008 132.074 340.807 115.282 340.807 94.5685C340.807 73.8546 324.008 57.0627 303.286 57.0627C282.564 57.0627 265.765 73.8546 265.765 94.5685C265.765 115.282 282.564 132.074 303.286 132.074Z" fill="#FFB6B6"/>
<path d="M323.988 102.507C323.988 102.507 309.734 74.2777 293.034 75.9075C276.333 77.5373 267.535 79.5195 267.535 79.5195C267.535 79.5195 262.577 57.5328 285.917 49.0757C285.917 49.0757 256.241 19.8347 291.573 5.49072C326.904 -8.85329 346.675 9.44067 346.675 9.44067C346.675 9.44067 372.827 35.5382 339.889 55.0437C339.889 55.0437 364.347 87.9291 334.735 115.034C334.735 115.034 341.358 93.1001 334.447 97.1451C327.536 101.19 323.988 102.507 323.988 102.507Z" fill="#2F2E41"/>
<path d="M261.888 300.666L256.896 305.447L220.84 382.727L216.893 510.553H277.473L305.89 447.252L325.037 509.942H379.507L392.134 396.141L358.191 315.658L261.888 300.666Z" fill="#2F2E41"/>
<path d="M324.643 142.462H284.186L240.18 166.133L250.442 211.898C250.442 211.898 248.074 239.515 253.599 260.03C259.125 280.545 256.757 307.373 256.757 307.373L358.191 315.658L361.349 222.55L359.77 160.215L324.643 142.462Z" fill="#E6E6E6"/>
<path d="M246.89 166.528C246.89 166.528 222.419 167.317 218.472 183.098C214.525 198.879 211.368 280.151 211.368 280.151C211.368 280.151 213.736 328.376 240.18 305.447C266.624 282.518 264.256 213.081 264.256 213.081L246.89 166.528Z" fill="#E6E6E6"/>
<path d="M484.239 569.09H340.032C335.148 569.09 331.174 565.119 331.174 560.236V411.221C331.174 406.339 335.148 402.367 340.032 402.367H484.239C489.123 402.367 493.096 406.339 493.096 411.221V560.236C493.096 565.119 489.123 569.09 484.239 569.09Z" fill="white"/>
<path d="M484.239 570H340.031C334.646 570 330.264 565.62 330.264 560.236V411.221C330.264 405.837 334.646 401.457 340.031 401.457H484.239C489.625 401.457 494.007 405.837 494.007 411.221V560.236C494.007 565.62 489.625 570 484.239 570ZM340.031 403.277C335.65 403.277 332.085 406.84 332.085 411.221V560.236C332.085 564.617 335.65 568.18 340.031 568.18H484.239C488.621 568.18 492.186 564.617 492.186 560.236V411.221C492.186 406.84 488.621 403.277 484.239 403.277H340.031Z" fill="#3F3D56"/>
<path d="M417.826 529.942H405.941C404.494 529.942 403.316 529.034 403.316 527.917V476.766C403.316 475.65 404.494 474.741 405.941 474.741H417.826C419.273 474.741 420.451 475.65 420.451 476.766V527.917C420.451 529.034 419.273 529.942 417.826 529.942Z" fill="#0C9B5C"/>
<path d="M378.532 499.798C377.362 499.798 376.411 500.532 376.411 501.434V527.86C376.411 528.762 377.362 529.496 378.532 529.496H390.417C391.586 529.496 392.538 528.762 392.538 527.86V501.434C392.538 500.532 391.586 499.798 390.417 499.798H378.532Z" fill="#0C9B5C"/>
<path d="M445.235 529.942H433.35C431.903 529.942 430.726 529.034 430.726 527.917V444.09C430.726 442.973 431.903 442.065 433.35 442.065H445.235C446.683 442.065 447.86 442.973 447.86 444.09V527.917C447.86 529.034 446.683 529.942 445.235 529.942Z" fill="#0C9B5C"/>
<path d="M189.466 162.496H175.889C174.236 162.496 172.892 161.458 172.892 160.183V101.754C172.892 100.478 174.236 99.4409 175.889 99.4409H189.466C191.119 99.4409 192.464 100.478 192.464 101.754V160.183C192.464 161.458 191.119 162.496 189.466 162.496Z" fill="#0C9B5C"/>
<path d="M144.58 128.063C143.245 128.063 142.158 128.902 142.158 129.932V160.118C142.158 161.148 143.245 161.987 144.58 161.987H158.157C159.493 161.987 160.579 161.148 160.579 160.118V129.932C160.579 128.902 159.493 128.063 158.157 128.063H144.58Z" fill="#0C9B5C"/>
<path d="M220.775 162.496H207.198C205.545 162.496 204.201 161.459 204.201 160.183V64.4282C204.201 63.1528 205.545 62.1152 207.198 62.1152H220.775C222.428 62.1152 223.773 63.1528 223.773 64.4282V160.183C223.773 161.458 222.428 162.496 220.775 162.496Z" fill="#0C9B5C"/>
<path d="M390.027 424.048C397.059 423.375 401.902 413.877 400.844 402.828C400.482 398.408 399.066 394.14 396.715 390.379L395.36 377.874L395.568 377.812L398.974 318.52C399.766 304.734 394.307 291.187 383.789 282.235C377.531 276.91 370.856 274.214 366.564 280.942C359.442 292.107 368.667 338.131 374.726 364.297L377.075 392.259C375.479 396.398 374.898 400.859 375.381 405.268C376.438 416.313 382.995 424.721 390.027 424.048Z" fill="#FFB6B6"/>
<path d="M351.087 161.793C351.087 161.793 371.611 153.903 381.083 177.574C390.556 201.246 400.817 318.025 400.817 318.025L352.666 309.346L351.087 161.793Z" fill="#E6E6E6"/>
<path d="M69.2702 150.215H41.6347C39.7904 150.215 38.2898 148.715 38.2898 146.872C38.2898 145.028 39.7904 143.529 41.6347 143.529H69.2702C71.1144 143.529 72.6144 145.028 72.6144 146.872C72.6144 148.715 71.1144 150.215 69.2702 150.215Z" fill="#E6E6E6"/>
<path d="M69.2702 102.824H41.6347C39.7904 102.824 38.2898 101.324 38.2898 99.481C38.2898 97.6375 39.7904 96.1382 41.6347 96.1382H69.2702C71.1144 96.1382 72.6144 97.6375 72.6144 99.481C72.6144 101.324 71.1144 102.824 69.2702 102.824Z" fill="#E6E6E6"/>
<path d="M69.2702 68.6485H41.6347C39.7904 68.6485 38.2898 67.1484 38.2898 65.305C38.2898 63.4615 39.7904 61.9622 41.6347 61.9622H69.2702C71.1144 61.9622 72.6144 63.4615 72.6144 65.305C72.6144 67.1485 71.1144 68.6485 69.2702 68.6485Z" fill="#E6E6E6"/>
<path d="M37.1812 162.661C37.1812 163.262 37.6637 163.744 38.2645 163.744H224.24C224.84 163.744 225.323 163.262 225.323 162.661C225.323 162.061 224.84 161.578 224.24 161.578H38.2645C37.6637 161.578 37.1812 162.061 37.1812 162.661Z" fill="#3F3D56"/>
<path d="M395.858 442.933C395.858 443.534 396.341 444.016 396.942 444.016H582.917C583.518 444.016 584 443.534 584 442.933C584 442.332 583.518 441.85 582.917 441.85H396.942C396.341 441.85 395.858 442.332 395.858 442.933Z" fill="#3F3D56"/>
<path d="M341.237 531.201C341.237 531.801 341.72 532.283 342.321 532.283H528.296C528.897 532.283 529.379 531.801 529.379 531.201C529.379 530.6 528.897 530.118 528.296 530.118H342.321C341.72 530.118 341.237 530.6 341.237 531.201Z" fill="#3F3D56"/>
<path d="M216.178 157.187C209.146 157.86 204.303 167.358 205.361 178.407C205.723 182.827 207.139 187.095 209.49 190.856L210.845 203.361L210.638 203.423L207.231 262.715C206.439 276.501 211.898 290.048 222.417 299C228.674 304.325 235.349 307.022 239.641 300.293C246.764 289.128 237.538 243.104 231.48 216.938L229.131 188.976C230.726 184.837 231.307 180.377 230.824 175.967C229.768 164.922 223.21 156.514 216.178 157.187Z" fill="#FFB6B6"/>
</g>
<defs>
<clipPath id="clip0_42_1054">
<rect width="584" height="570" fill="white"/>
</clipPath>
</defs>
</svg>
