<!DOCTYPE svg PUBLIC "-//W3C//DTD SVG 20010904//EN" "http://www.w3.org/TR/2001/REC-SVG-20010904/DTD/svg10.dtd">
<svg version="1.0" xmlns="http://www.w3.org/2000/svg" width="503px" height="399px" viewBox="0 0 5030 3990" preserveAspectRatio="xMidYMid meet">
<g id="layer1" fill="#01bf71" stroke="none">
 <path d="M164 3686 c-3 -8 16 -57 43 -109 42 -84 100 -159 456 -591 224 -272 407 -497 407 -500 0 -3 -74 -6 -164 -6 -103 0 -167 -4 -171 -10 -4 -6 40 -74 97 -150 l103 -140 483 -405 483 -405 -56 -25 c-31 -13 -167 -48 -302 -77 -135 -29 -252 -58 -261 -64 -14 -10 -15 -14 -2 -30 32 -40 853 -1030 865 -1042 9 -11 233 -5 1230 32 803 30 1222 50 1229 57 8 7 3 17 -15 32 -15 12 -58 47 -95 78 -39 32 -393 248 -817 499 -411 244 -744 447 -740 450 5 4 87 26 183 50 183 44 216 59 190 84 -8 7 -289 221 -625 476 -335 254 -616 468 -624 475 -11 11 2 16 68 30 86 19 115 33 103 51 -4 6 -128 93 -276 194 -409 278 -1719 1060 -1776 1060 -6 0 -13 -6 -16 -14z"/>
 </g>

</svg>